<svg width="101" height="71" viewBox="0 0 101 71" fill="none" xmlns="http://www.w3.org/2000/svg">
<mask id="path-1-inside-1" fill="white">
<path d="M24 53C24 61.2843 30.7157 68 39 68V70C29.6112 70 22 62.3888 22 53H24Z"/>
<path d="M78 29C78 20.7157 71.2843 14 63 14V12C72.3888 12 80 19.6112 80 29H78Z"/>
<path d="M28 53C28 59.0751 32.9249 64 39 64V66C31.8203 66 26 60.1797 26 53H28Z"/>
<path d="M74 29C74 22.9249 69.0751 18 63 18V16C70.1797 16 76 21.8203 76 29H74Z"/>
<path d="M63 22C66.866 22 70 25.134 70 29H72C72 24.0294 67.9706 20 63 20V22Z"/>
<path d="M39 60C35.134 60 32 56.866 32 53H30C30 57.9706 34.0294 62 39 62V60Z"/>
</mask>
<path d="M39 68H41V66H39V68ZM24 53H26V51H24V53ZM63 14H61V16H63V14ZM78 29H76V31H78V29ZM39 70V72H41V70H39ZM22 53V51H20V53H22ZM63 12V10H61V12H63ZM80 29V31H82V29H80ZM39 64H41V62H39V64ZM28 53H30V51H28V53ZM63 18H61V20H63V18ZM74 29H72V31H74V29ZM39 66V68H41V66H39ZM26 53V51H24V53H26ZM63 16V14H61V16H63ZM76 29V31H78V29H76ZM70 29H68V31H70V29ZM63 22H61V24H63V22ZM32 53H34V51H32V53ZM39 60H41V58H39V60ZM72 29V31H74V29H72ZM63 20V18H61V20H63ZM30 53V51H28V53H30ZM39 62V64H41V62H39ZM39 66C31.8203 66 26 60.1797 26 53H22C22 62.3888 29.6112 70 39 70V66ZM63 16C70.1797 16 76 21.8203 76 29H80C80 19.6112 72.3888 12 63 12V16ZM39 68C30.7157 68 24 61.2843 24 53H20C20 63.4934 28.5066 72 39 72V68ZM63 14C71.2843 14 78 20.7157 78 29H82C82 18.5066 73.4934 10 63 10V14ZM39 62C34.0294 62 30 57.9706 30 53H26C26 60.1797 31.8203 66 39 66V62ZM63 20C67.9706 20 72 24.0294 72 29H76C76 21.8203 70.1797 16 63 16V20ZM39 64C32.9249 64 28 59.0751 28 53H24C24 61.2843 30.7157 68 39 68V64ZM63 18C69.0751 18 74 22.9249 74 29H78C78 20.7157 71.2843 14 63 14V18ZM72 29C72 24.0294 67.9706 20 63 20V24C65.7614 24 68 26.2386 68 29H72ZM30 53C30 57.9706 34.0294 62 39 62V58C36.2386 58 34 55.7614 34 53H30ZM74 29C74 22.9249 69.0751 18 63 18V22C66.866 22 70 25.134 70 29H74ZM28 53C28 59.0751 32.9249 64 39 64V60C35.134 60 32 56.866 32 53H28ZM32 51H30V55H32V51ZM28 51H26V55H28V51ZM24 51H22V55H24V51ZM37 60V62H41V60H37ZM37 64V66H41V64H37ZM37 68V70H41V68H37ZM70 31H72V27H70V31ZM74 31H76V27H74V31ZM78 31H80V27H78V31ZM65 22V20H61V22H65ZM65 18V16H61V18H65ZM65 14V12H61V14H65Z" fill="#5FBAFF" mask="url(#path-1-inside-1)"/>
<path d="M37 31C37 28.7909 38.7909 27 41 27H61C63.2091 27 65 28.7909 65 31V51C65 53.2091 63.2091 55 61 55H41C38.7909 55 37 53.2091 37 51V31Z" stroke="#E83D43" stroke-width="2"/>
<circle cx="51" cy="41" r="5" stroke="#E83D43" stroke-width="2"/>
<circle cx="58.5" cy="33.5" r="1.5" fill="#E83D43"/>
</svg>
